<svg version="1.1" id="Layer_1" xmlns="http://www.w3.org/2000/svg" xmlns:xlink="http://www.w3.org/1999/xlink" x="0px" y="0px" viewBox="0 0 500 500" style="width: 151px;" xml:space="preserve" data-imageid="content-creation-33" imageName="Content Creation" class="illustrations_image">
<style type="text/css">
	.st0_content-creation-33{fill:#68E1FD;}
	.st1_content-creation-33{fill:#093F68;}
	.st2_content-creation-33{fill:#FFFFFF;}
	.st3_content-creation-33{fill:#DFEAEF;}
	.st4_content-creation-33{fill:#FFBC0E;}
	.st5_content-creation-33{fill:#70CC40;}
	.st6_content-creation-33{fill:#F56132;}
</style>
<g id="papers_content-creation-33">
	<rect x="88.6" y="93.4" class="st0_content-creation-33 targetColor" width="255.1" height="281.9" style="fill: rgb(24, 135, 201);"/>
	<path class="st1_content-creation-33" d="M343.7,377.2H88.6c-1,0-1.9-0.8-1.9-1.9V93.4c0-1,0.8-1.9,1.9-1.9l0,0h255.1c1,0,1.9,0.8,1.9,1.9v281.9&#10;&#9;&#9;C345.5,376.3,344.7,377.2,343.7,377.2z M90.4,373.5h251.4V95.3H90.4V373.5z"/>
	<polygon class="st2_content-creation-33" points="367,406.6 119.1,406.6 119.1,157.4 163.1,116.7 367,116.7 &#9;"/>
	<path class="st1_content-creation-33" d="M367,408.4H119.1c-1,0-1.9-0.8-1.9-1.9V157.4c0-0.5,0.2-1,0.6-1.4l44-40.8c0.3-0.3,0.8-0.5,1.3-0.5h204&#10;&#9;&#9;c1,0,1.9,0.8,1.9,1.8c0,0,0,0,0,0v289.9C368.9,407.6,368,408.4,367,408.4C367,408.4,367,408.4,367,408.4z M120.9,404.7h244.2V118.5&#10;&#9;&#9;H163.8l-42.9,39.7V404.7z"/>
	<polygon class="st2_content-creation-33" points="119.1,157.4 162.6,157.4 163.1,116.7 &#9;"/>
	<path class="st1_content-creation-33" d="M162.6,159.3h-43.5c-1,0-1.9-0.8-1.9-1.9c0-0.5,0.2-1,0.6-1.4l44-40.8c0.7-0.7,1.9-0.7,2.6,0.1&#10;&#9;&#9;c0.3,0.3,0.5,0.8,0.5,1.3l-0.5,40.8C164.4,158.5,163.6,159.3,162.6,159.3z M123.8,155.6h36.9l0.4-34.6L123.8,155.6z"/>
	<path class="st3_content-creation-33" d="M333.8,193H178.6c-1,0.1-1.9-0.7-2-1.7c-0.1-1,0.7-1.9,1.7-2c0.1,0,0.2,0,0.3,0h155.2c1-0.1,1.9,0.7,2,1.7&#10;&#9;&#9;c0.1,1-0.7,1.9-1.7,2C334,193,333.9,193,333.8,193z"/>
	<path class="st3_content-creation-33" d="M279.2,218.9h-127c-1-0.1-1.8-1-1.7-2c0.1-0.9,0.8-1.7,1.7-1.7h127c1,0.1,1.8,1,1.7,2&#10;&#9;&#9;C280.9,218.1,280.1,218.8,279.2,218.9z"/>
	<path class="st3_content-creation-33" d="M333.8,244.7H147.4c-1,0.1-1.9-0.7-2-1.7c-0.1-1,0.7-1.9,1.7-2c0.1,0,0.2,0,0.3,0h186.4c1-0.1,1.9,0.7,2,1.7&#10;&#9;&#9;c0.1,1-0.7,1.9-1.7,2C334,244.7,333.9,244.7,333.8,244.7z"/>
	<path class="st3_content-creation-33" d="M333.8,270.5H212.4c-1,0.1-1.9-0.7-2-1.7c-0.1-1,0.7-1.9,1.7-2c0.1,0,0.2,0,0.3,0h121.5c1-0.1,1.9,0.7,2,1.7&#10;&#9;&#9;c0.1,1-0.7,1.9-1.7,2C334,270.5,333.9,270.5,333.8,270.5z"/>
	<path class="st3_content-creation-33" d="M193.8,270.5h-24.1c-1-0.1-1.8-1-1.7-2c0.1-0.9,0.8-1.7,1.7-1.7h24.1c1,0.1,1.8,1,1.7,2&#10;&#9;&#9;C195.5,269.7,194.7,270.4,193.8,270.5z"/>
	<path class="st3_content-creation-33" d="M333.8,296.3h-54.6c-1,0.1-1.9-0.7-2-1.7c-0.1-1,0.7-1.9,1.7-2c0.1,0,0.2,0,0.3,0h54.6c1-0.1,1.9,0.7,2,1.7&#10;&#9;&#9;c0.1,1-0.7,1.9-1.7,2C334,296.3,333.9,296.3,333.8,296.3L333.8,296.3z"/>
	<path class="st3_content-creation-33" d="M265.3,296.3H152.2c-1-0.1-1.8-1-1.7-2c0.1-0.9,0.8-1.7,1.7-1.7h113.1c1,0.1,1.8,1,1.7,2&#10;&#9;&#9;C267,295.5,266.2,296.2,265.3,296.3z"/>
	<path class="st3_content-creation-33" d="M333.8,322.1h-29.5c-1,0-1.9-0.8-1.9-1.9c0-1,0.8-1.9,1.9-1.9h29.5c1,0,1.9,0.8,1.9,1.9&#10;&#9;&#9;C335.7,321.3,334.9,322.1,333.8,322.1L333.8,322.1z"/>
	<path class="st3_content-creation-33" d="M291.6,322.1h-42.2c-1,0-1.9-0.8-1.9-1.9c0-1,0.8-1.9,1.9-1.9h42.2c1,0,1.9,0.8,1.9,1.9&#10;&#9;&#9;C293.5,321.3,292.7,322.1,291.6,322.1z"/>
	<path class="st3_content-creation-33" d="M234.2,322.1h-33.8c-1,0-1.9-0.8-1.9-1.9c0-1,0.8-1.9,1.9-1.9h33.8c1,0,1.9,0.8,1.9,1.9&#10;&#9;&#9;C236.1,321.3,235.2,322.1,234.2,322.1L234.2,322.1z"/>
	<path class="st3_content-creation-33" d="M187.2,322.1h-35c-1,0-1.9-0.8-1.9-1.9c0-1,0.8-1.9,1.9-1.9h35c1,0,1.9,0.8,1.9,1.9&#10;&#9;&#9;C189.1,321.3,188.2,322.1,187.2,322.1z"/>
	<path class="st3_content-creation-33" d="M297.1,347.9H178.6c-1,0.1-1.9-0.7-2-1.7c-0.1-1,0.7-1.9,1.7-2c0.1,0,0.2,0,0.3,0h118.4c1-0.1,1.9,0.7,2,1.7&#10;&#9;&#9;c0.1,1-0.7,1.9-1.7,2C297.2,347.9,297.2,347.9,297.1,347.9z"/>
	<path class="st3_content-creation-33" d="M319.1,218.9h-14.8c-1,0.1-1.9-0.7-2-1.7c-0.1-1,0.7-1.9,1.7-2c0.1,0,0.2,0,0.3,0h14.8c1-0.1,1.9,0.7,2,1.7&#10;&#9;&#9;c0.1,1-0.7,1.9-1.7,2C319.3,218.9,319.2,218.9,319.1,218.9z"/>
	<path class="st3_content-creation-33" d="M333.8,152.7h-54.6c-1,0.1-1.9-0.7-2-1.7c-0.1-1,0.7-1.9,1.7-2c0.1,0,0.2,0,0.3,0h54.6c1-0.1,1.9,0.7,2,1.7&#10;&#9;&#9;c0.1,1-0.7,1.9-1.7,2C334,152.7,333.9,152.7,333.8,152.7L333.8,152.7z"/>
</g>
<g id="video_content-creation-33">
	<path class="st2_content-creation-33" d="M277.5,260.8h132.4l0,0v99.8c0,1.9-1.5,3.4-3.4,3.4h0H280.9c-1.9,0-3.4-1.5-3.4-3.4v0V260.8L277.5,260.8z"/>
	<path class="st1_content-creation-33" d="M403.5,365.9H283.9c-4.5,0-8.2-3.7-8.2-8.2v-96.9c0-1,0.8-1.9,1.9-1.9h132.4c1,0,1.9,0.8,1.9,1.9v96.9&#10;&#9;&#9;C411.7,362.2,408.1,365.9,403.5,365.9z M279.4,262.7v95c0,2.5,2,4.5,4.5,4.5h119.7c2.5,0,4.5-2,4.5-4.5v-95H279.4z"/>
	<path class="st4_content-creation-33" d="M280.9,249.3h125.5c1.9,0,3.4,1.5,3.4,3.4c0,0,0,0,0,0v8.1l0,0H277.5l0,0v-8.1&#10;&#9;&#9;C277.5,250.8,279.1,249.3,280.9,249.3L280.9,249.3z"/>
	<path class="st1_content-creation-33" d="M409.9,262.7H277.5c-1,0-1.9-0.8-1.9-1.8c0,0,0,0,0,0v-5.2c0-4.5,3.7-8.2,8.2-8.2h119.7c4.5,0,8.2,3.7,8.2,8.2&#10;&#9;&#9;v5.2C411.7,261.9,410.9,262.7,409.9,262.7C409.9,262.7,409.9,262.7,409.9,262.7z M279.4,259H408v-3.3c0-2.5-2-4.5-4.5-4.5H283.9&#10;&#9;&#9;c-2.5,0-4.5,2-4.5,4.5V259z"/>
	<polygon class="st4_content-creation-33" points="323.5,330.5 323.5,277.7 374.7,304.1 &#9;"/>
	<path class="st1_content-creation-33" d="M323.5,332.3c-1,0-1.8-0.8-1.9-1.9v-52.7c0-1,0.8-1.9,1.9-1.9c0.3,0,0.6,0.1,0.8,0.2l51.2,26.4&#10;&#9;&#9;c0.6,0.3,1,1,1,1.6c0,0.7-0.4,1.3-1,1.6l-51.2,26.4C324.1,332.3,323.8,332.3,323.5,332.3z M325.3,280.8v46.6l45.3-23.3L325.3,280.8&#10;&#9;&#9;z"/>
	<path class="st1_content-creation-33" d="M393,349.9h-98.6c-1,0.1-1.9-0.7-2-1.7c-0.1-1,0.7-1.9,1.7-2c0.1,0,0.2,0,0.3,0H393c1-0.1,1.9,0.7,2,1.7&#10;&#9;&#9;c0.1,1-0.7,1.9-1.7,2C393.2,349.9,393.1,349.9,393,349.9z"/>
	<circle class="st1_content-creation-33" cx="371.5" cy="348.1" r="5.8"/>
	<path class="st1_content-creation-33" d="M371.5,355.7c-4.2,0-7.7-3.4-7.7-7.6s3.4-7.7,7.6-7.7s7.7,3.4,7.7,7.6c0,0,0,0,0,0&#10;&#9;&#9;C379.1,352.3,375.7,355.7,371.5,355.7z M371.5,344.1c-2.2,0-3.9,1.8-3.9,3.9c0,2.2,1.8,3.9,3.9,3.9s3.9-1.8,4-3.9c0,0,0,0,0,0&#10;&#9;&#9;C375.4,345.9,373.7,344.1,371.5,344.1L371.5,344.1z"/>
</g>
<g id="image_content-creation-33">
	<rect x="317.3" y="144.9" class="st5_content-creation-33" width="108.4" height="80.7"/>
	<path class="st1_content-creation-33" d="M425.7,227.5H317.3c-1,0-1.9-0.8-1.9-1.9v-80.7c0-1,0.8-1.9,1.8-1.9c0,0,0,0,0,0h108.4c1,0,1.9,0.8,1.9,1.8&#10;&#9;&#9;c0,0,0,0,0,0v80.7C427.5,226.7,426.7,227.5,425.7,227.5z M319.2,223.8h104.6v-77H319.2V223.8z"/>
	<path class="st1_content-creation-33" d="M317.3,204.9c-1,0-1.8-0.9-1.8-1.9c0-0.6,0.3-1.2,0.8-1.5l50.3-33.8c0.7-0.5,1.6-0.4,2.2,0.1l39.6,31.6&#10;&#9;&#9;c0.8,0.7,0.8,1.9,0.1,2.6c-0.6,0.7-1.7,0.8-2.5,0.3l-38.6-30.8l-49.1,33C318.1,204.8,317.7,204.9,317.3,204.9z"/>
	<path class="st1_content-creation-33" d="M425.7,190.9c-0.4,0-0.8-0.1-1.1-0.4l-17.2-13.4l-13.7,13.3c-0.8,0.7-2,0.6-2.6-0.2c-0.6-0.7-0.6-1.8,0-2.5&#10;&#9;&#9;l14.8-14.4c0.7-0.6,1.7-0.7,2.4-0.1l18.5,14.5c0.8,0.6,0.9,1.8,0.3,2.6C426.8,190.7,426.2,190.9,425.7,190.9L425.7,190.9z"/>
	<circle class="st6_content-creation-33" cx="390.9" cy="164.1" r="7.9"/>
	<path class="st1_content-creation-33" d="M390.9,173.8c-5.4,0-9.7-4.4-9.7-9.7c0-5.4,4.4-9.7,9.7-9.7c5.4,0,9.7,4.4,9.7,9.7&#10;&#9;&#9;C400.7,169.5,396.3,173.8,390.9,173.8z M390.9,158.1c-3.3,0-6,2.7-6,6s2.7,6,6,6s6-2.7,6-6S394.3,158.1,390.9,158.1z"/>
</g>
<g id="pencil_content-creation-33">
	
		<rect x="99.3" y="204.2" transform="matrix(0.9251 -0.3796 0.3796 0.9251 -94.2285 61.6935)" class="st6_content-creation-33" width="20" height="131.2"/>
	<path class="st1_content-creation-33" d="M124.9,336.1c-0.2,0-0.5,0-0.7-0.1c-0.5-0.2-0.8-0.5-1-1L73.4,213.6c-0.2-0.5-0.2-1,0-1.4c0.2-0.5,0.5-0.8,1-1&#10;&#9;&#9;l18.6-7.6c0.9-0.4,2,0.1,2.4,1c0,0,0,0,0,0L145.2,326c0.4,0.9-0.1,2-1,2.4c0,0,0,0,0,0l-18.5,7.6&#10;&#9;&#9;C125.4,336.1,125.2,336.1,124.9,336.1z M77.6,213.9l48.4,118l15.1-6.2l-48.4-118L77.6,213.9z"/>
	<polygon class="st2_content-creation-33" points="143.5,326.7 145.4,344.6 147.4,362.6 136.2,348.5 124.9,334.3 &#9;"/>
	<path class="st1_content-creation-33" d="M147.4,364.5c-0.6,0-1.1-0.3-1.5-0.7l-22.5-28.4c-0.6-0.8-0.5-2,0.3-2.6c0.1-0.1,0.3-0.2,0.5-0.3l18.5-7.6&#10;&#9;&#9;c0.5-0.2,1.2-0.2,1.7,0.1c0.5,0.3,0.8,0.8,0.9,1.4l3.9,36c0.1,0.8-0.4,1.6-1.1,1.9C147.9,364.5,147.6,364.5,147.4,364.5z&#10;&#9;&#9; M127.9,335l17,21.4l-3-27.1L127.9,335z"/>
	<polygon class="st1_content-creation-33" points="145.4,344.6 147.4,362.6 136.2,348.5 &#9;"/>
	<path class="st1_content-creation-33" d="M147.4,364.5c-0.6,0-1.1-0.3-1.5-0.7l-11.2-14.2c-0.4-0.5-0.5-1.1-0.3-1.6c0.1-0.6,0.5-1,1.1-1.2l9.3-3.8&#10;&#9;&#9;c0.5-0.2,1.1-0.2,1.6,0.1c0.5,0.3,0.8,0.8,0.9,1.4l2,18c0.1,0.8-0.4,1.6-1.1,1.9C147.9,364.5,147.7,364.5,147.4,364.5z&#10;&#9;&#9; M139.2,349.2l5.7,7.2l-1-9.1L139.2,349.2z"/>
</g>
</svg>