<svg version="1.1" id="Layer_1" xmlns="http://www.w3.org/2000/svg" xmlns:xlink="http://www.w3.org/1999/xlink" x="0px" y="0px" viewBox="0 0 500 500" style="width: 151px;" xml:space="preserve" data-imageid="facebook-ad-2" imageName="Facebook Ad" class="illustrations_image">
<style type="text/css">
	.st0_facebook-ad-2{fill:#FFC9B0;}
	.st1_facebook-ad-2{fill:#093F68;}
	.st2_facebook-ad-2{fill:#FFFFFF;}
	.st3_facebook-ad-2{fill:#68E1FD;}
	.st4_facebook-ad-2{fill:#DFEAEF;}
</style>
<g id="device_facebook-ad-2">
	<path class="st0_facebook-ad-2" d="M180.8,428l9.6-71.3l-4.1-119.2c0,0-75.3,39.7-80.7,67.4c-5.9,30.9-9.9,94.7-11.5,123.1L180.8,428z"/>
	<path class="st1_facebook-ad-2" d="M180.8,430H94.2c-0.5,0-1-0.2-1.4-0.6c-0.4-0.4-0.5-0.9-0.5-1.4c1.5-26.7,5.5-92.1,11.5-123.4&#10;&#9;&#9;c5.4-28.3,78.5-67.1,81.7-68.7c0.6-0.3,1.3-0.3,1.9,0c0.6,0.3,0.9,0.9,0.9,1.6l4.1,119.2c0,0.1,0,0.2,0,0.3l-9.6,71.3&#10;&#9;&#9;C182.6,429.3,181.8,430,180.8,430z M96.2,426.2h82.9l9.4-69.5l-4-115.9c-13.4,7.4-72.5,41-77,64.6&#10;&#9;&#9;C101.8,335.6,97.8,398.4,96.2,426.2L96.2,426.2z"/>
	<path class="st2_facebook-ad-2" d="M192.6,72h140.4c16,0,28.9,12.9,28.9,28.9v273.3c0,16-12.9,28.9-28.9,28.9H192.6c-16,0-28.9-12.9-28.9-28.9&#10;&#9;&#9;V100.9C163.7,84.9,176.7,72,192.6,72z"/>
	<path class="st1_facebook-ad-2" d="M332.6,405H193.1c-17.3,0-31.3-14-31.3-31.3V101.3c0-17.3,14-31.3,31.3-31.3h139.5c17.3,0,31.3,14,31.3,31.3&#10;&#9;&#9;v272.3C363.9,391,349.9,405,332.6,405z M193.1,73.9c-15.2,0-27.5,12.3-27.5,27.5v272.3c0,15.2,12.3,27.5,27.5,27.5h139.5&#10;&#9;&#9;c15.2,0,27.5-12.3,27.5-27.5V101.3c0-15.2-12.3-27.5-27.5-27.5H193.1z"/>
	<path class="st1_facebook-ad-2" d="M252.7,92h-8.4c-1.1,0.1-2-0.7-2.1-1.8c-0.1-1.1,0.7-2,1.8-2.1c0.1,0,0.2,0,0.3,0h8.4c1.1-0.1,2,0.7,2.1,1.8&#10;&#9;&#9;c0.1,1.1-0.7,2-1.8,2.1C252.9,92,252.8,92,252.7,92z"/>
	<path class="st1_facebook-ad-2" d="M281.4,92h-20.6c-1.1-0.1-1.9-1-1.8-2.1c0.1-1,0.8-1.7,1.8-1.8h20.6c1.1,0.1,1.9,1,1.8,2.1&#10;&#9;&#9;C283.1,91.2,282.4,91.9,281.4,92z"/>
	<circle class="st1_facebook-ad-2" cx="262.9" cy="383.2" r="4.7"/>
	<rect x="177" y="108.7" class="st2_facebook-ad-2" width="171.7" height="253.7"/>
	<path class="st1_facebook-ad-2" d="M348.7,364.3H177c-1.1,0-1.9-0.8-1.9-1.9c0,0,0,0,0,0V108.7c0-1.1,0.9-1.9,1.9-1.9h171.7&#10;&#9;&#9;c1.1,0,1.9,0.9,1.9,1.9c0,0,0,0,0,0v253.7C350.6,363.4,349.8,364.3,348.7,364.3C348.7,364.3,348.7,364.3,348.7,364.3z M178.9,360.4&#10;&#9;&#9;h167.9V110.6H178.9L178.9,360.4z"/>
	<rect x="177" y="182" class="st3_facebook-ad-2 targetColor" width="171.7" height="129.2" style="fill: rgb(24, 135, 201);"/>
	<path class="st1_facebook-ad-2" d="M348.7,313.1H177c-1.1,0-1.9-0.9-1.9-1.9V182c0-1.1,0.9-1.9,1.9-1.9h171.7c1.1,0,1.9,0.9,1.9,1.9c0,0,0,0,0,0&#10;&#9;&#9;v129.2C350.6,312.2,349.8,313.1,348.7,313.1z M178.9,309.3h167.9V183.9H178.9L178.9,309.3z"/>
	<rect x="177" y="108.7" class="st1_facebook-ad-2" width="171.7" height="32.2"/>
	<path class="st1_facebook-ad-2" d="M348.7,142.8H177c-1.1,0-1.9-0.9-1.9-1.9v-32.2c0-1.1,0.9-1.9,1.9-1.9h171.7c1.1,0,1.9,0.9,1.9,1.9&#10;&#9;&#9;c0,0,0,0,0,0v32.2C350.6,141.9,349.8,142.8,348.7,142.8z M178.9,139h167.9v-28.4H178.9V139z"/>
	<circle class="st3_facebook-ad-2 targetColor" cx="197" cy="160.9" r="10.6" style="fill: rgb(24, 135, 201);"/>
	<path class="st1_facebook-ad-2" d="M197,173.5c-6.9,0-12.6-5.6-12.6-12.6c0-6.9,5.6-12.6,12.6-12.6c6.9,0,12.6,5.6,12.6,12.6l0,0&#10;&#9;&#9;C209.5,167.9,203.9,173.5,197,173.5z M197,152.2c-4.8,0-8.7,3.9-8.7,8.7c0,4.8,3.9,8.7,8.7,8.7c4.8,0,8.7-3.9,8.7-8.7l0,0&#10;&#9;&#9;C205.7,156.1,201.8,152.2,197,152.2z"/>
	<path class="st4_facebook-ad-2" d="M278.5,156.8h-60c-1.1-0.1-1.9-1-1.8-2.1c0.1-1,0.8-1.7,1.8-1.8h60c1.1-0.1,2,0.7,2.1,1.8&#10;&#9;&#9;c0.1,1.1-0.7,2-1.8,2.1C278.7,156.8,278.6,156.8,278.5,156.8z"/>
	<path class="st4_facebook-ad-2" d="M259.2,170.3h-40.7c-1.1-0.1-1.9-1-1.8-2.1c0.1-1,0.8-1.7,1.8-1.8h40.7c1.1,0.1,1.9,1,1.8,2.1&#10;&#9;&#9;C260.9,169.5,260.1,170.3,259.2,170.3L259.2,170.3z"/>
	<path class="st4_facebook-ad-2" d="M322.3,327.2H195.4c-1.1,0.1-2-0.7-2.1-1.8s0.7-2,1.8-2.1c0.1,0,0.2,0,0.3,0h126.9c1.1,0.1,1.9,1,1.8,2.1&#10;&#9;&#9;C324,326.3,323.3,327.1,322.3,327.2z"/>
	<path class="st4_facebook-ad-2" d="M300.8,347.2H195.4c-1.1,0.1-2-0.7-2.1-1.8s0.7-2,1.8-2.1c0.1,0,0.2,0,0.3,0h105.4c1.1-0.1,2,0.7,2.1,1.8&#10;&#9;&#9;s-0.7,2-1.8,2.1C301,347.2,300.9,347.2,300.8,347.2z"/>
	<path class="st4_facebook-ad-2" d="M336.7,164.9H308c-1.1,0-1.9-0.8-2-1.8c0,0,0-0.1,0-0.1v-10.8c0-1.1,0.9-1.9,1.9-1.9l0,0h28.8&#10;&#9;&#9;c1.1,0,1.9,0.9,1.9,1.9V163C338.6,164.1,337.8,164.9,336.7,164.9L336.7,164.9z M309.9,161.1h24.9v-7h-24.9L309.9,161.1z"/>
	<path class="st0_facebook-ad-2" d="M105.4,350c0,0-0.5-40,45.3-68.7c39.3-24.7,41.2-10.2,39.2-0.3c-2.5,12.2-31.4,35.1-31.4,35.1&#10;&#9;&#9;s18.1,18.6-4.5,48"/>
	<path class="st1_facebook-ad-2" d="M154,365.9c-1.1,0-1.9-0.9-1.9-1.9c0-0.4,0.1-0.8,0.4-1.1c21.2-27.6,5.3-44.8,4.6-45.5c-0.7-0.8-0.7-2,0.1-2.7&#10;&#9;&#9;c0,0,0.1-0.1,0.1-0.1c7.9-6.2,28.8-24.5,30.7-34c0.6-2.9,1.2-8-1.6-10c-2.7-1.9-10.7-2.7-34.6,12.3c-23.1,14.5-34,32-39,44.1&#10;&#9;&#9;c-5.4,13.1-5.4,22.9-5.4,23c0,1-0.8,1.9-1.9,1.9c0,0,0,0,0,0l0,0c-1,0-1.9-0.8-1.9-1.9c0-1.7,0-41.4,46.2-70.4&#10;&#9;&#9;c20-12.5,32.7-16.5,38.9-12.2c3.5,2.4,4.6,7.2,3.2,13.9c-2.4,11.2-24.5,30-30.6,35c3.9,5.4,13.9,23.5-5.6,48.8&#10;&#9;&#9;C155.2,365.6,154.6,365.9,154,365.9z"/>
</g>
<g id="ad_facebook-ad-2">
	<path class="st1_facebook-ad-2" d="M201.2,228.6h6.6l15.9,36.5h-9.1l-3.1-7.7h-14.2l-3,7.7h-8.9L201.2,228.6z M204.3,239.2l-4.4,11.3h8.9&#10;&#9;&#9;L204.3,239.2z"/>
	<path class="st1_facebook-ad-2" d="M252.7,265.1h-7.1v-3.3h-0.1c-0.8,1.1-1.8,2-3,2.6c-0.7,0.4-1.4,0.7-2.2,0.9c-0.8,0.2-1.7,0.4-2.5,0.4&#10;&#9;&#9;c-1.7,0-3.4-0.3-5-1c-1.5-0.6-2.8-1.5-3.9-2.7c-1.1-1.2-2-2.6-2.5-4.1c-0.6-1.7-0.9-3.4-0.9-5.2c0-1.7,0.3-3.4,0.8-5&#10;&#9;&#9;c0.5-1.5,1.3-3,2.3-4.2c1-1.2,2.2-2.3,3.6-3c1.5-0.8,3.1-1.1,4.8-1.1c1.5,0,3.1,0.2,4.5,0.8c1.4,0.5,2.6,1.4,3.4,2.6h0.1v-16.6h7.7&#10;&#9;&#9;L252.7,265.1z M245.6,252.5c0.1-1.7-0.5-3.3-1.6-4.5c-2.6-2.3-6.5-2.3-9.1,0c-2.2,2.7-2.2,6.5,0,9.2c2.6,2.3,6.5,2.3,9.1,0&#10;&#9;&#9;C245.1,255.9,245.7,254.2,245.6,252.5L245.6,252.5z"/>
</g>
<g id="hand_facebook-ad-2">
	<path class="st0_facebook-ad-2" d="M310,404.8l5.5,22.5h90.4c-6.6-14.8-16.7-37.3-18.8-40.3c-3.1-4.6-1.9-64.2-13.5-84.5&#10;&#9;&#9;c-6.2-10.3-17.9-13.8-29.3-12.8c-3.5,0.3-34.4,8-35.4,4.2c-3.2-12.9-7-25.7-11.4-38.3c-2-5.8-4.2-11.6-8.1-16.4&#10;&#9;&#9;c-3.6-4.4-10-7.7-14.8-4.7s-4.9,10-4.2,15.7c3.9,33.3,13.9,66.1,25,97.7c0,0-16.7-10.8-25-13.7s-15.4,5-9.8,21.9&#10;&#9;&#9;C266,373,310,404.8,310,404.8z"/>
	<path class="st1_facebook-ad-2" d="M405.8,429.2h-90.4c-0.9,0-1.7-0.6-1.9-1.5l-5.3-21.8c-5.4-4-44.3-32.8-49.7-49.2c-3.2-9.9-2.6-18,1.7-22.3&#10;&#9;&#9;c2.7-2.7,6.6-3.4,10.6-2c5.6,2,15,7.5,20.7,11c-9.6-27.7-19.4-59.9-23.2-92.9c-0.7-5.8-0.9-14,5.1-17.6c5.7-3.4,13,0,17.2,5.2&#10;&#9;&#9;c4,4.9,6.3,10.8,8.4,16.9c4.3,12.4,8.1,25.2,11.3,38c3.5,1,20.3-2.5,26.7-3.8c3.8-0.8,5.8-1.2,6.8-1.3c13.8-1.2,25.1,3.8,31.1,13.7&#10;&#9;&#9;c7.9,13.7,10,44.5,11.4,64.9c0.6,8.9,1.2,18,2.1,19.5c2.1,3,11.5,23.7,19,40.6c0.3,0.6,0.2,1.3-0.1,1.8&#10;&#9;&#9;C407.1,429,406.4,429.3,405.8,429.2z M316.9,425.4h85.9c-9.7-21.7-16-35.2-17.4-37.3c-1.3-1.9-1.8-7.9-2.7-21.4&#10;&#9;&#9;c-1.4-20-3.5-50.3-10.9-63.2c-5.2-8.6-15.3-12.9-27.5-11.8c-0.7,0.1-3.3,0.6-6.3,1.2c-23.8,4.9-30.2,5.2-31.1,1.5&#10;&#9;&#9;c-3.2-12.8-7-25.7-11.4-38.2c-2-5.8-4.1-11.3-7.8-15.8c-3.1-3.8-8.5-6.6-12.3-4.3c-3.1,1.9-4.2,6.3-3.3,13.9&#10;&#9;&#9;c4,34.8,14.8,68.7,24.9,97.3c0.3,0.9-0.1,1.9-0.9,2.3c-0.6,0.3-1.4,0.3-2-0.1c-1.7-1.1-16.9-10.8-24.5-13.5c-2.6-0.9-5-0.5-6.6,1.1&#10;&#9;&#9;c-3.2,3.1-3.5,10-0.7,18.3c5.3,16.1,48.4,47.4,48.9,47.7c0.4,0.3,0.6,0.7,0.7,1.1L316.9,425.4z"/>
</g>
</svg>