<svg id="_0528_seo" xmlns="http://www.w3.org/2000/svg" viewBox="0 0 500 500" data-imageid="seo-1-79" imageName="SEO 1" class="illustrations_image" style="width: 151px;"><defs><style>.cls-1_seo-1-79{fill:#fff;}.cls-2_seo-1-79{fill:#f4a28c;}.cls-3_seo-1-79{fill:#a5a5a5;}.cls-4_seo-1-79{opacity:.58;}.cls-4_seo-1-79,.cls-5_seo-1-79,.cls-6_seo-1-79,.cls-7_seo-1-79,.cls-8_seo-1-79{fill:none;}.cls-5_seo-1-79{opacity:.44;}.cls-9_seo-1-79{fill:#e6e6e6;}.cls-6_seo-1-79{opacity:.73;}.cls-7_seo-1-79{opacity:.08;}.cls-8_seo-1-79{opacity:.12;}.cls-10_seo-1-79{fill:#24285b;}.cls-11_seo-1-79{fill:#ffd200;}.cls-12_seo-1-79{fill:#68e1fd;}</style></defs><g id="seo_seo-1-79"><rect class="cls-9_seo-1-79" x="39.32" y="101.48" width="425.83" height="320.58"/><g class="cls-5_seo-1-79"><rect class="cls-1_seo-1-79" x="91.6" y="216.78" width="321.27" height="58.74" rx="17.53" ry="17.53"/></g><g class="cls-8_seo-1-79"><rect x="176.12" y="322.77" width="140.91" height="54.02" rx="13.04" ry="13.04"/></g><path class="cls-3_seo-1-79" d="m189.01,178.56l9.29-.58c.2,1.51.61,2.66,1.23,3.45,1.01,1.28,2.44,1.92,4.31,1.92,1.39,0,2.47-.33,3.22-.98s1.13-1.41,1.13-2.27-.36-1.55-1.08-2.2-2.39-1.26-5-1.83c-4.28-.96-7.34-2.24-9.16-3.84-1.84-1.6-2.76-3.63-2.76-6.1,0-1.62.47-3.16,1.41-4.6.94-1.44,2.36-2.58,4.25-3.41s4.48-1.24,7.77-1.24c4.04,0,7.12.75,9.24,2.25,2.12,1.5,3.38,3.89,3.78,7.17l-9.21.54c-.24-1.42-.76-2.46-1.54-3.1s-1.86-.97-3.24-.97c-1.14,0-1.99.24-2.57.72s-.86,1.07-.86,1.76c0,.5.24.96.71,1.36.46.42,1.55.8,3.28,1.16,4.27.92,7.33,1.85,9.17,2.79s3.19,2.11,4.03,3.5,1.26,2.95,1.26,4.68c0,2.03-.56,3.89-1.68,5.6-1.12,1.71-2.69,3.01-4.7,3.89s-4.55,1.33-7.61,1.33c-5.38,0-9.1-1.03-11.17-3.1s-3.24-4.7-3.51-7.89Z"/><path class="cls-3_seo-1-79" d="m237.3,157.41h26.17v6.75h-16.38v5.02h15.2v6.45h-15.2v6.23h16.86v7.16h-26.65v-31.6Z"/><path class="cls-3_seo-1-79" d="m282.7,173.23c0-5.16,1.44-9.18,4.31-12.05,2.87-2.87,6.88-4.31,12.01-4.31s9.31,1.41,12.16,4.24c2.85,2.82,4.27,6.78,4.27,11.87,0,3.69-.62,6.72-1.86,9.09s-3.04,4.2-5.39,5.52-5.28,1.97-8.78,1.97-6.51-.57-8.85-1.7-4.23-2.93-5.68-5.39-2.18-5.53-2.18-9.23Zm9.77.04c0,3.19.59,5.48,1.78,6.88s2.8,2.09,4.84,2.09,3.72-.68,4.87-2.05c1.15-1.37,1.72-3.82,1.72-7.35,0-2.97-.6-5.15-1.8-6.52s-2.83-2.06-4.88-2.06-3.55.7-4.74,2.09c-1.19,1.39-1.79,3.7-1.79,6.92Z"/><rect class="cls-3_seo-1-79" x="39.31" y="72.31" width="425.84" height="42.12"/><circle class="cls-10_seo-1-79" cx="70.35" cy="92.33" r="8.01"/><circle class="cls-11_seo-1-79" cx="95.05" cy="92.33" r="8.01"/><circle class="cls-12_seo-1-79 targetColor" cx="119.74" cy="92.33" r="8.01" style="fill: rgb(24, 135, 201);"/><circle class="cls-10_seo-1-79" cx="129.45" cy="245.08" r="8.62"/><circle class="cls-10_seo-1-79" cx="174.69" cy="245.08" r="8.62"/><circle class="cls-10_seo-1-79" cx="219.92" cy="245.08" r="8.62"/></g><g id="search_seo-1-79"><g class="cls-8_seo-1-79"><path d="m432.31,423.51h-47.99c-2.02-2.18-9.42-21.75-11.81-23.65-29.28-23.37-15.14-37.18-24.03-72.95-10.78-43.39-40.51-6.88-65.78-49.62-9.32-15.75-9.86-35.92-2.03-53.69,4.01-9.1,4.57-9.71,14.83-13.27,3.12-1.08,6.36-1.57,9.59-1.22-1.53,6.45-3.05,12.9-4.58,19.33-1.76,7.42-3.54,14.94-3.38,22.55.14,7.62,2.44,15.49,7.79,20.91,5.51,5.56,13.51,7.91,21.3,8.71,4.86.51,9.95.45,14.34-1.67,8.9-4.31,14.72-12.99,17.42-22.32,2.19-7.6,2.42-15.66,1.57-23.53-.91-8.47-3.84-15.22-11.06-20.01-8.48-5.63-19.03-8.07-29.12-6.73.9-5.62,6.15-9.79,11.7-11.03,6.9-1.54,14.32.28,20.75,2.84,2.54,1.01,21.36,8.11,21.62,10.13,1.43,11.41,2.86,22.81,4.29,34.22.16,1.25.31,2.53.07,3.77-.35,1.79-1.5,3.31-2.61,4.75-7.33,9.53-14.6,19.09-21.88,28.66l18.61,42.44,60.39,101.38Z"/></g><path class="cls-12_seo-1-79 targetColor" d="m294.87,254.99l1.45-.44v-2.07c0-.24-.37-.66-.44-.64-.88.37-1.33-.25-1.22-.82s.96-.89,1.5-1.33c.12-.09.33,0,.62-.09l-.21-1.08c1.51-1.43,2.1-2.5,1.7-3.07-.88-1.24-2.79-1.99-3.64-1.45-1.33.88-1.33,1.55-.37,3.36l-3.79,5.21c-.34.04-.66.19-.92.43-.15.19.27.81.41,1.24l.58,1.59,6.91,1.1-2.59-1.94Z" style="fill: rgb(24, 135, 201);"/><path class="cls-12_seo-1-79 targetColor" d="m302.25,253.87v-2.66c-.68-.65-1.33-1.12-1.77-1.69-.92-1.05-1.87-.32-2.66,0-.78.32-.68,1.08.13,1.57.13.08.19.36.19.56,0,.65-.17,1.71.12,1.87,1.16.58,2.38,1.02,3.64,1.33.23,0,.6-.45.89-.69l-.54-.29Z" style="fill: rgb(24, 135, 201);"/><path class="cls-12_seo-1-79 targetColor" d="m384.33,307.87c-1.06-1.86-3.35-2.62-5.31-1.78-2.1,1.05-4.13,2.23-6.44,3.49l3.19.36c.7-.82,1.13-1.69,1.82-2.03,1.24-.68,2.59-1.14,3.99-1.33.81-.07,1.71.77,2.76,1.29Z" style="fill: rgb(24, 135, 201);"/><path class="cls-12_seo-1-79 targetColor" d="m372.86,311.38l-2.66.24,1.33-1.53c-2.52-.68-5.31.29-5.17,1.86,2.19-.19,4.44.89,6.5-.57Z" style="fill: rgb(24, 135, 201);"/><path class="cls-12_seo-1-79 targetColor" d="m380.53,244.87c.94,0,1.78.35,2.11,0,.94-.81,1.55-.15,2.38.12.88.13,1.78.13,2.66,0-1.79-2.84-2.28-3.02-4.52-1.74l-.45.25-2.18,1.37Z" style="fill: rgb(24, 135, 201);"/><rect class="cls-11_seo-1-79" x="354.66" y="277.8" width="15.51" height="45.17" transform="translate(813.62 434.54) rotate(156.91)"/><g class="cls-7_seo-1-79"><rect x="354.66" y="277.8" width="15.51" height="45.17" transform="translate(813.62 434.54) rotate(156.91)"/></g><rect class="cls-10_seo-1-79" x="365.63" y="307.37" width="23.87" height="58.04" transform="translate(856.81 497.73) rotate(156.91)"/><path class="cls-11_seo-1-79" d="m290.88,258.62c11.03,25.86,40.93,37.88,66.78,26.85,25.86-11.03,37.88-40.93,26.85-66.78-11.03-25.86-40.93-37.88-66.78-26.85-25.86,11.03-37.88,40.93-26.85,66.78Zm13.75-5.86c-7.79-18.26.7-39.38,18.97-47.17,18.26-7.79,39.38.7,47.17,18.97,7.79,18.26-.7,39.38-18.97,47.17-18.26,7.79-39.38-.7-47.17-18.97Z"/><polygon class="cls-12_seo-1-79 targetColor" points="490.21 427.69 442.2 366.99 419.99 380.62 405.49 389.53 420.63 427.69 490.21 427.69" style="fill: rgb(24, 135, 201);"/><path class="cls-2_seo-1-79" d="m437.38,369.96s-14-82-45.06-83.44c-31.06-1.44-12.08,48.74-27.32,47.1-15.24-1.64-16.92,34.24,40.49,55.91l31.88-19.57Z"/><g class="cls-8_seo-1-79"><path d="m445.62,427.69c-9.76-17.82-19.4-35.49-25.62-47.07l-14.5,8.91,15.14,38.16h24.98Z"/></g></g><g id="growth_seo-1-79"><g class="cls-7_seo-1-79"><rect x="38.91" y="309.87" width="100.46" height="83.99"/></g><rect class="cls-11_seo-1-79" x="9.79" y="302.14" width="121.13" height="83.99"/><path class="cls-1_seo-1-79" d="m115.54,315.96c-.61-.56-1.44-.8-2.25-.64l-18.39,3.47c-1.42.27-2.35,1.63-2.08,3.05.27,1.42,1.63,2.36,3.05,2.08l9.91-1.87-30.61,31.29-17.74-17.44c-.5-.49-1.19-.76-1.86-.75-.69,0-1.36.29-1.84.79l-28.43,29.13c-1.01,1.03-.99,2.69.05,3.7.51.5,1.17.74,1.83.74s1.36-.26,1.87-.79l26.59-27.25,17.74,17.44c.5.49,1.12.7,1.86.75.69,0,1.36-.29,1.84-.79l33.37-34.11-1.05,10.36c-.15,1.44.9,2.72,2.34,2.86.09,0,.18.01.27.01,1.32,0,2.46-1,2.6-2.35l1.78-17.5c.08-.82-.22-1.63-.83-2.19Z"/></g><g id="plant_seo-1-79"><g class="cls-4_seo-1-79"><path class="cls-12_seo-1-79 targetColor" d="m50.6,277.8s19.29-5.18,23.56-23.1c0,0-29.83-6.16-30.81,24.65l7.25-1.55Z" style="fill: rgb(24, 135, 201);"/></g><g class="cls-6_seo-1-79"><path class="cls-12_seo-1-79 targetColor" d="m48.24,275.88s13.55-21.23,1.79-41.17c0,0-22.76,14.32-12.79,41.17h11Z" style="fill: rgb(24, 135, 201);"/></g><path class="cls-12_seo-1-79 targetColor" d="m44.77,275.88s-7.02-22.5-28.5-26.85c0,0-4.09,14.58,13.81,26.85h14.69Z" style="fill: rgb(24, 135, 201);"/><polygon class="cls-10_seo-1-79" points="58.75 275.43 54.73 302.14 30.13 302.14 26.62 275.43 58.75 275.43"/></g></svg>